[img]http://sharinghq.l33t.cz.cc/torrentimg/d172811754b9de8176ebb096ca35387ee1faff93.jpg[/img]
[color=lime]-------------------------------------------------[/color]
[color=lime]-------------------------------------------------[/color]
File Name    : Stomp The Yard 2 Homcoming[2010]DvDScR-LW
Type         : Movie
Format       : AVI
File Size    : 700 MB
Duration     : 01:31:19
Language     : English
Source       : DvD
Subtitles    : None
Genre        : Comedy
IMDB Link    : http://www.imdb.com/title/tt0492389/
IMDB Rating  : 1.9/10
IMDB Votes   : 2,768 Votes
[color=lime]-------------------------------------------------[/color]
[color=lime]-------------------------------------------------[/color]
Format                           : MPEG-4 Visual
Format profile                   : Advanced Simple@L5
Format settings, BVOP            : Yes
Format settings, QPel            : No
Format settings, GMC             : No warppoints
Format settings, Matrix          : Default (H.263)
Codec ID                         : XVID
Codec ID/Hint                    : XviD
Duration                         : 1h 31mn
Bit rate                         : 929 Kbps
Width                            : 624 pixels
Height                           : 352 pixels
Display aspect ratio             : 16:9
Frame rate                       : 23.976 fps
Resolution                       : 8 bits
Colorimetry                      : 4:2:0
Scan type                        : Progressive
Bits/(Pixel*Frame)               : 0.176
Stream size                      : 607 MiB (87%)
Writing library                  : XviD 1.2.1
[color=lime]-------------------------------------------------[/color]
[color=lime]-------------------------------------------------[/color]
Format                           : AC-3
Format/Info                      : Audio Coding 3
Codec ID                         : 2000
Duration                         : 1h 27mn
Bit rate mode                    : Constant
Bit rate                         : 192 Kbps
Channel(s)                       : 2 channels
Channel positions                : L R
Sampling rate                    : 48.0 KHz
Stream size                      : 120 MiB (17%)
Alignment                        : Split accross interleaves
Interleave, duration             : 42 ms (1.00 video frame)
Interleave, preload duration     : 500 ms
[color=lime]-------------------------------------------------[/color]
[color=lime]-------------------------------------------------[/color]
When real estate developer Dan Sanders (Brendan Fraser) 
finalizes plans to level a swath of pristine Oregon 
forest to make way for a soulless housing subdivision, 
a band of woodland creatures rises up to throw a monkey 
wrench into the greedy scheme. Just how much mischief 
from the furry critters can the businessman take 
before he calls it quits? Roger Kumble directs this 
family-friendly, madcap comedy.

Starring: Brendan Fraser, Ricky Garcia

Director: Roger Kumble
[color=lime]-------------------------------------------------[/color]